<svg id="Layer_1" data-name="Layer 1" xmlns="http://www.w3.org/2000/svg" width="240" height="240" viewBox="0 0 240 240">
  <defs>
    <style>
      .forange, .forange-30 {
        fill: #de9934;
      }

      .fwhite {
        fill: #fff;
      }

      .forange-30 {
        opacity: 0.3;
      }

      .fgrey {
        fill: #414042;
      }
    </style>
  </defs>
  <circle class="forange" cx="120" cy="120" r="120"/>
  <path class="fwhite" d="M219,98.59a10,10,0,0,0-10-10H174v-12a4,4,0,0,0-8,0v12H66v-12a4,4,0,0,0-8,0v12H31a10,10,0,0,0-10,10v89.23a120,120,0,0,0,198,0ZM62,100.75a5.49,5.49,0,0,1-4-9.26v3.76a4,4,0,0,0,8,0V91.49a5.49,5.49,0,0,1-4,9.26Zm108,0a5.49,5.49,0,0,1-4-9.26v3.76a4,4,0,0,0,8,0V91.49a5.49,5.49,0,0,1-4,9.26Z"/>
  <path class="forange-30" d="M105.15,145.5h29.7v29.7h-29.7Zm-32.4,84.83a119,119,0,0,0,29.7,8.39V210.3H72.75Zm62.1-117.22h-29.7V142.8h29.7ZM72.75,142.8h29.7V113.11H72.75Zm-32.4,32.4h29.7V145.5H40.35Zm29.7-62.09H40.35V142.8h29.7Zm0,97.19H41a120.17,120.17,0,0,0,29.07,18.84Zm-29.7-2.7h29.7V177.9H40.35Zm32.4,0h29.7V177.9H72.75Zm64.8,31.12a119,119,0,0,0,29.7-8.39v-20h-29.7Zm32.4-9.58A120.17,120.17,0,0,0,199,210.3H170Zm29.7-83.64H170v29.7h29.7ZM170,142.8h29.7V113.11H170Zm-35.1,35.1h-29.7v29.7h29.7Zm0,32.4h-29.7v28.79a121.62,121.62,0,0,0,29.7,0Zm32.4-97.19h-29.7V142.8h29.7Zm-29.7,62.09h29.7V145.5h-29.7ZM170,207.6h29.7V177.9H170Zm-32.4,0h29.7V177.9h-29.7ZM67.86,95.25,71,88.59H66v6.66a4,4,0,0,1-4,4A7.2,7.2,0,0,0,67.86,95.25ZM174,88.59v6.66a4,4,0,0,1-4,4,7.2,7.2,0,0,0,5.86-4L179,88.59Z"/>
  <rect class="forange" x="72.75" y="145.5" width="29.7" height="29.7"/>
  <path class="fgrey" d="M99.1,175.2h-23v-30a2.1,2.1,0,0,1,2.09-2.09H97a2.1,2.1,0,0,1,2.09,2.09Z"/>
  <path class="fwhite" d="M83.79,148.62H78.57v5.23h5.22Zm6.43,0H85v5.23h5.23Zm6.42,0H91.41v5.23h5.23ZM83.79,155H78.57v5.23h5.22Zm6.43,0H85v5.23h5.23Zm6.42,0H91.41v5.23h5.23Zm-12.85,6.42H78.57v5.23h5.22Zm6.43,0H85v5.23h5.23Zm6.42,0H91.41v5.23h5.23Zm-6.42,6.42H85v5.23h5.23Z"/>
</svg>
