<svg id="Layer_1" data-name="Layer 1" xmlns="http://www.w3.org/2000/svg" width="240" height="240" viewBox="0 0 240 240">
  <defs>
    <style>
      .forange, .forange-30 {
        fill: #de9934;
      }

      .fwhite, .fwhite-60 {
        fill: #fff;
      }

      .fwhite-60 {
        opacity: 0.6;
      }

      .fgrey {
        fill: #414042;
      }

      .forange-30 {
        opacity: 0.3;
      }
    </style>
  </defs>
  <circle class="forange" cx="120" cy="120" r="120"/>
  <path class="fwhite-60" d="M34.23,86H177.84a7.58,7.58,0,0,1,7.56,7.56v74.17a7.58,7.58,0,0,1-7.56,7.56H162.18v20l-20-20H34.23a7.58,7.58,0,0,1-7.56-7.56V93.52A7.58,7.58,0,0,1,34.23,86Z"/>
  <path class="fwhite" d="M72.24,35.77v87.56a9,9,0,0,0,8.93,8.92H99.66v23.66l23.65-23.66H239.38A120.13,120.13,0,0,0,195.64,26.84H81.17A9,9,0,0,0,72.24,35.77Z"/>
  <path class="fgrey" d="M40.18,112.91v3H60.67v-3A3.73,3.73,0,0,0,57,109.19h-13A3.73,3.73,0,0,0,40.18,112.91ZM56,101.74a5.59,5.59,0,1,0-5.58,5.59A5.58,5.58,0,0,0,56,101.74ZM85.76,53.8v3h20.48v-3a3.73,3.73,0,0,0-3.72-3.73h-13A3.73,3.73,0,0,0,85.76,53.8Zm15.83-11.18A5.59,5.59,0,1,0,96,48.21,5.59,5.59,0,0,0,101.59,42.62Z"/>
  <path class="forange-30" d="M142.06,80.59a8,8,0,1,1-8-8A8,8,0,0,1,142.06,80.59Zm16-8a8,8,0,1,0,8,8A8,8,0,0,0,158.06,72.59Zm24,0a8,8,0,1,0,8,8A8,8,0,0,0,182.06,72.59Z"/>
</svg>
