<svg id="Layer_1" data-name="Layer 1" xmlns="http://www.w3.org/2000/svg" width="600" height="211.03" viewBox="0 0 600 211.03">
  <defs>
    <style>
      .cls-1 {
        fill: #f0a523;
      }

      .cls-2 {
        fill: #fff;
      }
    </style>
  </defs>
  <path class="cls-1" d="M376.39,45.39h10.76V56.13H376.39Zm-265.31,55c-4.26-3.77-4.75-17.11-4.12-22.24.39-2.31,1.77-8.31,8.85-15.87A10.59,10.59,0,0,0,119,60.57l.08-.75L125.44,57a1.1,1.1,0,0,0-1.16-.58,1.44,1.44,0,0,1,.09-.42,2.48,2.48,0,0,1,.57-.49c-8.83,2.17-11.5,5.57-12.28,6.64-1.41.35,1.41-2.33,1.41-2.33-1.24,0-2.15,1.39-3.15,2.49-4.51,1.89-8.71,11.75-10.38,16.86-2.34,15.68,7,26.57,22.41,33.45,3.38,2.67,11.11,1.18,13.87,2,5.87-.58,15.77-12,15.77-12l-.24-.24.08-.42c-1.35.79-3.43,2.16-5.15,3.07l-.08.25-2.33,1.49-.08.25s-1.5.91-2.83,1.75c-1.09.69-3.81-.36-5.89.74-3.22.89-3.95.92-6.56.42l-.08.33h-.5l-.41-.58c-2.43.23-11.3-3.86-11.88-5.65-1.89-1-2.13-6.51-5.56-3.73m17-37.95c-.43.14-2.37,0-2.74.34l1,.33v.33a6.69,6.69,0,0,1-1.91.75l-.25-.25.08-.41c-4.86-1.61-4.17,5.55-5.89,4.23V67.3l-.17-.17a35.43,35.43,0,0,0-3.65,3.73c-1.22.78-3.56,3.73-1.92,6,.57,1.51-.09,6.37,3.5,4.15,1.84-.27-.74,3.07,1.9,3.16V84s-.67-.25-.82-.66c.43-1.23,1.12-.56,2.4-.58.12.29-.3.78-.66,1.16.57.22,2.39-3.09,3.65-1.33,0,.19,0,.37.17.58,1.52-.06,2.09-.48,4.15.5,1.49.2,4.93-1.62,3.32,1.91-1.64.17-4.59,1.87-4.57,3.4l-.16.09c.17,1.48,2.11,3.21,1.57,4.23,0,.12-.21-.12-.24,0L131.5,97c1.76-.78,2.64,2.44,3.74,3.65.54,1-2.77,4-.66,6,2.9-1.15,6.93-5.92,7.58-7.5.42-1,2.37-7.53,1.22-8.11,0-2.48,1.51-2.91.08-5.4-1.39-3.37-6.55-4.28-7.39-2.57.07,1.45-2.11-.22-3.4-.66-1-1.44-1.53-1.84-2.41-1.91-7.9,1.53.48-6.61,2.74-4.57,0,1.79,1.17.42,1.41,3.07,2.77,3.18,3.26-12.67,1.24-14.12-1.57-.07-.93-.58-1.4-1.49-2.11.45-1.93-1.68-4-.08,0,0-1.86-1.29-2.16-.92m18.76-3.23c-3.43.67,2.91,5.36,3,6-.6,1-2.56,5.12-.82,7.14.28,1.58,4.84,2.6,5.89,1.57.7.09,1.47,1,1.41,3.07-6.23.44-11,1.38-7,11.21.36,3,.8,7.26,2.08,8.39l1.25-.25.16.25a6.59,6.59,0,0,1-1.58,1.91c1.49.72,5.25-5.74,5.81-6.64l1.42-.09c-.11-.28,1.28-1.52,1.32-2.4.92-.17.55-3.24.42-4a1.11,1.11,0,0,0,.83-.08c-1.05-.68-.83-5.32-.58-5.73-.28-.46-.34-1.92-1-2.91l-.09.25-.58-.08v-.33l-.07-.34.49-.25-.08-.58s.15-.16-.16-.08c-.15-1,0-1-.42-1.49h-.16s-.16.14.08-.25a1.54,1.54,0,0,1-1.08-.83c-1.59-3.79-4.77-10.33-8-9.88-1-1.13-1.93-3.17-2.57-3.57M68.28,71H40.07V82.47h14v20c-1.86.89-5.74,1.58-11,1.58-16.54,0-27.72-10.7-27.72-28.89,0-18.53,12-28.62,29-28.62,8.46,0,13.81,1.48,18.16,3.41l3.23-11.75c-3.72-1.76-11.37-3.75-21.19-3.75C18.16,34.41.14,50.56.07,75.87c0,12,4.08,22.55,11.21,29.35,7.54,7.24,17.82,10.63,31.29,10.63a81.18,81.18,0,0,0,25.71-4.44Zm13.65,44H95.31V38H81.93Zm84.26-14.83c0,5.42-.2,11.27-.44,14.83h11.43l.6-8H178c3.81,6.55,9.83,9.15,16.65,9.15,12,0,24-9.46,24-28.46.09-16.11-9.14-26.8-22-26.8-7.87,0-13.64,3.3-16.88,8.47h-.22V38H166.19Zm13.36-15.61a15.39,15.39,0,0,1,.43-3.47,12.42,12.42,0,0,1,11.85-9.76c8.82,0,13.3,7.65,13.3,17,0,10.68-5.06,17.35-13.45,17.35a12.18,12.18,0,0,1-11.79-9.36,14.28,14.28,0,0,1-.34-3.15Zm91.14-1.34c0-11.6-4.84-22.29-21.8-22.29-8.32,0-15.17,2.27-19.16,4.7l2.65,8.67a28.11,28.11,0,0,1,14.21-4c9.36,0,10.74,5.75,10.74,9.22v.88c-19.47-.08-31.36,6.68-31.36,20,0,8.06,5.94,15.72,16.67,15.72,6.84,0,12.37-2.91,15.58-7.08h.32l.91,5.89h12.06a79.67,79.67,0,0,1-.82-12.74Zm-13,13.19a10.07,10.07,0,0,1-.37,2.91,10.88,10.88,0,0,1-10.46,7.31c-4.23,0-7.62-2.43-7.62-7.61,0-8,9-10,18.45-9.92Zm24.78,18.59h13.37V38H282.46Z"/>
  <path class="cls-2" d="M0,135.16H486.2v5.62H0Zm551,5.62h49v-5.62H551ZM343.38,115.26l28.53-83.44h-11L347.38,73.09c-3.58,10.85-6.85,21.36-9.09,31H338c-2.16-9.71-5.12-19.88-8.54-31.13L317.06,31.82h-11.2L332,115.26Zm59.07,0H412V38.15h-9.51Zm25.39,0h9.51V38.15h-9.51ZM487.78,83c0-10.52-3.91-21.49-20-21.49-6.63,0-13,1.8-17.33,4.6l2.16,6.35a25.7,25.7,0,0,1,13.68-3.91c10.76,0,12,7.85,12,12.12v1.11c-20.29-.14-31.56,6.85-31.56,19.57,0,7.54,5.43,15.07,16,15.07a19.54,19.54,0,0,0,16.07-7.83h.28l.84,6.64h8.62a80.86,80.86,0,0,1-.8-12.57Zm-9.3,14.55a9.7,9.7,0,0,1-.46,3,13.13,13.13,0,0,1-12.79,8.8c-4.8,0-8.92-2.88-8.92-9.15,0-10.15,11.83-12,22.17-11.79Zm66.34-20.47c0-6.39.18-10.66.44-14.38h-8.43l-.4,7.87h-.21c-2.34-4.37-7.26-9.06-16.38-9.06-12.13,0-23.71,10-23.71,27.85,0,14.55,9.29,25.69,22.39,25.69,8.09,0,13.82-3.92,16.69-8.86h.22v5.86c0,13.3-7.17,18.4-16.92,18.4a29.61,29.61,0,0,1-15.47-4.2l-2.38,7.35c4.27,2.83,11.17,4.32,17.53,4.32,6.62,0,14-1.57,19.14-6.3,5-4.6,7.49-11.89,7.49-24.05Zm-9.5,15.75a16.89,16.89,0,0,1-.75,5.08,14,14,0,0,1-13.29,9.85c-10.24,0-15.54-8.64-15.54-18.92,0-12.21,6.53-19.91,15.64-19.91,7,0,11.66,4.59,13.42,10.16a14.71,14.71,0,0,1,.52,4.27Zm64.25-2.14a22.68,22.68,0,0,0,.33-4.48c0-9.67-4.48-24.7-21.61-24.7C563,61.54,553.58,74,553.58,89.89c0,15.76,9.7,26.51,25.83,26.51a42.37,42.37,0,0,0,17.52-3.35l-1.67-6.79A35.21,35.21,0,0,1,580.72,109c-9.6,0-17.79-5.32-18-18.23Zm-36.71-6.87c.76-6.65,4.91-15.46,14.66-15.46,10.72,0,13.27,9.44,13.18,15.46Zm-185.8,31.41h9.5V62.73h-9.5ZM110.09.56c-.08.48-.27,2.06-.27,2.06l0,2.26c0,.15,0,1.47,0,1.74s.17,1.28.33,2.24c0,.28.35,1.46.41,1.66l.34,1.08.24.75.09.58-.25.91,1.91,1.91,2.24,2.33,2.16,2.48a7.76,7.76,0,0,1,2.07,5,13.34,13.34,0,0,0,.75,4l-.58,1.83-.5.75-.17.58-.41.58-.25,1.57-.33,1.83s-.29.68-.66,1.66c-.31.8-.67,1.63-.92,2.41-.33,1.06-.8,2.08-1,2.82-.3,1.17-.67,2.74-.67,2.74l-.33.25s-1.86-.68-2.41-.83c-.35-.09-1.69-.39-2.57-.58a8.29,8.29,0,0,1-.92-.25s-1.07-1.09-1.82.67a7.4,7.4,0,0,1-1.41,2.32s-1.35,1.43.66.58S107,47.38,107,47.38s.37-1,1.15-.16a2.65,2.65,0,0,0,1.92.91,6.43,6.43,0,0,0,1.16.83c.91.51,1.21.78,1.82,1.08.84.41,1.75.83,1.75.83l2.49.25a5.89,5.89,0,0,0,2.74-2.66,9.74,9.74,0,0,1,2-2.9l1.08-1.75.58-.83s.79-1.9,1.91.09,3,4.56,3,4.56l.74,1.08.92.58.16,1.08s2.52,3.06,2.91,3.57,2.54,3.44,2.91,4c.23.34.94,1.22,1.41,2,.19.32,1.11,1.32,1.41,1.74s.42.65.67,1c1.15,1.68,1.39.23,1.41-1.17.05-3.22-1-4.06-1-4.06s-1.31-3.57-1.49-3.9-.71-1.84-.84-2.08-.51-1.35-.66-1.74-1.13-2.4-1.25-2.66c-.33-.73-1.13-2.61-1.33-3-.08-.17-1.07-2.74-1.07-2.74s-1.17-2.15-1.25-2.32c-.15-.34-.78-2-1-2.49-.11-.26-.92-1.67-.92-1.67l-.16-.57L131.67,31l2.08-3.41,1.74-2.07,1.83-2.25,2-2.27,2.32-2.62,2.4-2.66,2.08-2.49.41-.25V11.93l-.17-.5-.57-.66-.5,1-2.66,2.65-5.56,3.49-3.82,2.49-1.08.66a.81.81,0,0,1-1,0,10.31,10.31,0,0,0-1.32-.91l-.42-.17-.09-.91.51-1.25.41-1.08s.58-2.31-.41-3.4a7.32,7.32,0,0,1-1.25-1.57,1.83,1.83,0,0,0-2.74.24,4.86,4.86,0,0,0-1.25,2.66l-.58.75s0-.11,0,.4l-.13.92-.17,1.5L122,16.74c-.38-.31-1.49-1.14-1.58-1.23-.58-.58-.93-.81-1.58-1.42l-1.57-1.49-1.33-1.33-.67-.42-.5-.74-.33-.75s-.84-1.07-.91-1.25c-.21-.49-.92-1.91-.92-1.91L111.75,4l-.59-1.66-.41-1.33-.08-.49s-.39-1.25-.58,0M166,165.92c.15.35.53,1.24,1.12,2.66s1.33,3.16,2.22,5.23,1.87,4.37,2.95,6.92,2.2,5.12,3.35,7.74,2.25,5.21,3.33,7.78,2.07,4.87,3,6.94,1.63,3.8,2.22,5.21,1,2.27,1.12,2.63c.16-.36.54-1.24,1.16-2.63l2.24-5.21c.89-2.07,1.87-4.38,3-6.94s2.19-5.16,3.34-7.78,2.25-5.2,3.34-7.74,2.07-4.85,2.95-6.92,1.63-3.82,2.22-5.23,1-2.31,1.12-2.66h-7.15l-11.53,27.72a4.46,4.46,0,0,0-.3.8,13.47,13.47,0,0,0-.35,1.39,13.47,13.47,0,0,0-.35-1.39,7.94,7.94,0,0,1-.24-.8l-11.53-27.72ZM209.54,209h7.27v-43.1h-7.27Zm46.53-9.76c0,.12-.35.34-.92.65a14.42,14.42,0,0,1-2.22,1,26.64,26.64,0,0,1-3.13.85,17,17,0,0,1-3.66.39,14,14,0,0,1-6-1.27,15.51,15.51,0,0,1-4.71-3.35,15,15,0,0,1-3.07-4.75,14.57,14.57,0,0,1-1.09-5.53,14.27,14.27,0,0,1,1.15-5.62,14.92,14.92,0,0,1,3.19-4.76,16.08,16.08,0,0,1,4.85-3.28,15.08,15.08,0,0,1,6.12-1.24,19.16,19.16,0,0,1,2,.12c.75.08,1.49.19,2.22.32a14.42,14.42,0,0,1,2.1.57,7.56,7.56,0,0,1,1.71.82c.47-.82.84-1.47,1.09-1.95l.71-1.27c.22-.37.43-.74.63-1.09s.47-.81.82-1.36a5,5,0,0,0-1.74-1.13,20.06,20.06,0,0,0-2.81-.94,31.93,31.93,0,0,0-3.4-.68,24.07,24.07,0,0,0-3.58-.27,22.56,22.56,0,0,0-8.66,1.66,21.74,21.74,0,0,0-7.09,4.64,22.1,22.1,0,0,0-4.82,7.09,22.46,22.46,0,0,0-1.77,9,23.77,23.77,0,0,0,1.47,8.34A20.47,20.47,0,0,0,229.7,203a20.22,20.22,0,0,0,6.8,4.7,22.52,22.52,0,0,0,9.1,1.75,26.5,26.5,0,0,0,4.67-.39,29.69,29.69,0,0,0,3.94-.94,20.39,20.39,0,0,0,3-1.22,18.6,18.6,0,0,0,2-1.12Zm6-33.34v6.91h10.4V209h7.28V172.83h10.64v-6.91Zm32,21.63a21,21,0,0,0,1.75,8.55,22.49,22.49,0,0,0,4.73,7,22.11,22.11,0,0,0,7,4.69,22,22,0,0,0,17.06,0,22.05,22.05,0,0,0,11.79-11.67,21.66,21.66,0,0,0,0-17.06,22.59,22.59,0,0,0-4.75-7,22.9,22.9,0,0,0-7-4.78,21.33,21.33,0,0,0-17.06,0A22.53,22.53,0,0,0,295.83,179a21,21,0,0,0-1.75,8.51m7.28,0a15.07,15.07,0,0,1,1.15-5.88,15.72,15.72,0,0,1,3.13-4.82,14.48,14.48,0,0,1,4.67-3.25,14.67,14.67,0,0,1,11.53,0,14.71,14.71,0,0,1,4.7,3.25,15.7,15.7,0,0,1,3.19,4.82,14.75,14.75,0,0,1,1.19,5.88,15.27,15.27,0,0,1-1.15,5.89,15.55,15.55,0,0,1-3.14,4.79,14.71,14.71,0,0,1-4.67,3.22,14,14,0,0,1-5.71,1.18,14.28,14.28,0,0,1-5.82-1.18,15.44,15.44,0,0,1-4.73-3.22,14.83,14.83,0,0,1-3.19-4.79,15.09,15.09,0,0,1-1.15-5.89M352.44,209V194.17h6.62c1.46,2.21,3,4.55,4.55,7s3.25,5.08,5,7.83h8.69c-1.07-1.65-2.05-3.19-3-4.61l-2.63-4.13-2.51-4-2.55-4a12.3,12.3,0,0,0,3-2.4,12,12,0,0,0,2-3.05,15.42,15.42,0,0,0,1.13-3.42,18.65,18.65,0,0,0,.35-3.55A14.74,14.74,0,0,0,372,174a12,12,0,0,0-3.17-4.38,14.05,14.05,0,0,0-5-2.72,21,21,0,0,0-6.48-.94H345.22V209Zm0-36.3h5.85a8.17,8.17,0,0,1,3.78.77,6.9,6.9,0,0,1,2.34,1.9,6.6,6.6,0,0,1,1.18,2.39,9.15,9.15,0,0,1,.33,2.28,8.6,8.6,0,0,1-.36,2.33,6.32,6.32,0,0,1-1.24,2.36,7.22,7.22,0,0,1-2.36,1.87,8.09,8.09,0,0,1-3.73.77h-5.79ZM382.83,209h7.27v-43.1h-7.27Zm50.84,0c-.16-.36-.53-1.24-1.12-2.63l-2.22-5.21c-.89-2.07-1.87-4.37-3-6.92s-2.19-5.13-3.34-7.77-2.26-5.23-3.34-7.77-2.07-4.85-2.95-6.92l-2.25-5.21c-.61-1.39-1-2.27-1.16-2.62-.15.35-.52,1.23-1.12,2.62s-1.33,3.14-2.21,5.21-1.88,4.37-3,6.92-2.2,5.13-3.34,7.77-2.26,5.23-3.34,7.77-2.07,4.85-3,6.92-1.62,3.81-2.21,5.21-1,2.27-1.13,2.63h7.16l4.72-11.35h14.84c.56,1.33,1.09,2.62,1.6,3.87s1,2.37,1.42,3.39.8,1.9,1.09,2.61l.63,1.48Zm-19.93-27.73a7.94,7.94,0,0,1,.24-.8,12.1,12.1,0,0,0,.35-1.33,12.34,12.34,0,0,0,.36,1.33,4.46,4.46,0,0,0,.3.8l4.25,10.28h-9.81Z"/>
</svg>
