<svg id="Layer_1" data-name="Layer 1" xmlns="http://www.w3.org/2000/svg" width="36" height="36" viewBox="0 0 36 36">
  <defs>
    <style>
      .white {
        fill: #fff;
      }
    </style>
  </defs>
  <circle cx="18" cy="18" r="18"/>
  <path class="white" d="M31.39,6a17.89,17.89,0,0,1,2.72,20H20a2,2,0,0,1-2-2v-4.7h4a2.5,2.5,0,0,0,0-5H18V8a2,2,0,0,1,2-2ZM23.5,16.79a1.5,1.5,0,0,0-1.5-1.5H8a2,2,0,0,0-2,2v8a2,2,0,0,0,2,2V33a17.87,17.87,0,0,0,7,2.77V18.29h7A1.5,1.5,0,0,0,23.5,16.79Zm-12-8.5a3,3,0,1,0,3,3A3,3,0,0,0,11.5,8.29Z"/>
</svg>
