<svg id="Layer_1" data-name="Layer 1" xmlns="http://www.w3.org/2000/svg" width="36" height="36" viewBox="0 0 36 36">
  <defs>
    <style>
      .white {
        fill: #fff;
      }
    </style>
  </defs>
  <circle cx="18" cy="18" r="18"/>
  <path class="white" d="M7.6,8.55A2.4,2.4,0,1,1,10,11,2.39,2.39,0,0,1,7.6,8.55Zm28.19,12a1,1,0,0,0-.86-.51H19.34a1,1,0,0,0-1,1v10a1,1,0,0,0,1,1h5.83V34.5a18,18,0,0,0,5.56-3.77c.21-.21.39-.44.59-.65h-11a1,1,0,0,1-1-1v-7a1,1,0,0,1,1-1h14a1,1,0,0,1,1,1v.73A18.57,18.57,0,0,0,35.79,20.59ZM19.8,7.81a2.4,2.4,0,1,0-2.4-2.4A2.4,2.4,0,0,0,19.8,7.81Zm4.12,20.25v1h6.83v-1a1.25,1.25,0,0,0-1.24-1.24H25.16A1.25,1.25,0,0,0,23.92,28.06Zm5.28-3.73a1.87,1.87,0,1,0-1.86,1.87A1.87,1.87,0,0,0,29.2,24.33ZM30.73,5.27c-.12-.12-.25-.22-.37-.33L24.2,11.09v-.88a1.6,1.6,0,0,0-1.6-1.6H17a1.6,1.6,0,0,0-1.6,1.6V15a1.6,1.6,0,0,0,1.6,1.6v1.68l-4.2,4.2V19.75a1.6,1.6,0,0,0,1.6-1.6v-4.8a1.6,1.6,0,0,0-1.6-1.6H7.2a1.6,1.6,0,0,0-1.6,1.6v4.8a1.6,1.6,0,0,0,1.6,1.6v8.34L4.94,30.36c.11.12.21.25.33.37s.25.22.37.33L31.06,5.64C31,5.52,30.85,5.39,30.73,5.27Z"/>
</svg>
