<svg id="Layer_1" data-name="Layer 1" xmlns="http://www.w3.org/2000/svg" width="36" height="36" viewBox="0 0 36 36">
  <defs>
    <style>
      .white {
        fill: #fff;
      }
    </style>
  </defs>
  <circle cx="18" cy="18" r="18"/>
  <path class="white" d="M30,17.79v7a2,2,0,0,1-2,2V33a17.87,17.87,0,0,1-7,2.77V26.79a2,2,0,0,1-2-2v-7a2,2,0,0,1,2-2h7A2,2,0,0,1,30,17.79Zm-2.5-6a3,3,0,1,0-3,3A3,3,0,0,0,27.5,11.79ZM15,17.29H8a2,2,0,0,0-2,2v6a2,2,0,0,0,2,2V33a17.87,17.87,0,0,0,7,2.77V27.29a2,2,0,0,0,2-2v-6A2,2,0,0,0,15,17.29Zm-.5-4a3,3,0,1,0-3,3A3,3,0,0,0,14.5,13.29Z"/>
</svg>
