<svg xmlns="http://www.w3.org/2000/svg" width="24" height="24" viewBox="0 0 24 24">
  <path d="M13.32,13H0V5H13.32ZM8.1,7.61a1.45,1.45,0,0,0-1.29-.74H5.33v4.25H6.77a1.44,1.44,0,0,0,.8-.21,1.49,1.49,0,0,0,.52-.51c0-.08.08-.15.11-.22a1.12,1.12,0,0,0,.08-.26,6.55,6.55,0,0,0,0-.92,8.56,8.56,0,0,0,0-.87A1.26,1.26,0,0,0,8.1,7.61ZM6.17,7.7h.58A.62.62,0,0,1,7.34,8a.48.48,0,0,1,.12.3,6.05,6.05,0,0,1,0,.73,5.53,5.53,0,0,1,0,.72.46.46,0,0,1-.1.27.67.67,0,0,1-.62.29H6.17Zm5.42,0V6.87H8.87v4.25h.84V9.42h1.61V8.63H9.71V7.7ZM4.48,7.18A1.42,1.42,0,0,0,4,6.92a2.42,2.42,0,0,0-.47,0H2v4.25h.84V9.56h.77a1.21,1.21,0,0,0,1-.44,1.35,1.35,0,0,0,.33-.89,1.38,1.38,0,0,0-.13-.62A1.12,1.12,0,0,0,4.48,7.18Zm-.37,1A.61.61,0,0,1,4,8.58a.48.48,0,0,1-.4.16H2.84v-1h.72a.62.62,0,0,1,.36.09.43.43,0,0,1,.13.14A.62.62,0,0,1,4.11,8.22ZM3.5,4V2.75A1.25,1.25,0,0,1,4.75,1.5h12A1.25,1.25,0,0,1,18,2.75V13h1.5V2.75A2.75,2.75,0,0,0,16.75,0h-12A2.75,2.75,0,0,0,2,2.75V4ZM14.12,21H4.75A1.25,1.25,0,0,1,3.5,19.75V14H2v5.75A2.75,2.75,0,0,0,4.75,22.5h11Zm7.4-1.94V14H15.93v5.06h-2.4L18.72,24l5.2-4.94Z"/>
</svg>
