<svg xmlns="http://www.w3.org/2000/svg" width="24" height="24" viewBox="0 0 24 24">
  <path d="M23.28,6.26H21.83l-1-3.33a1.67,1.67,0,0,0-1.61-1.19H4.78a1.67,1.67,0,0,0-1.61,1.2l-1,3.32H.72A.72.72,0,0,0,0,7V17.8a.72.72,0,0,0,.72.72H2.53L2,21.4a.73.73,0,0,0,.15.6.74.74,0,0,0,.56.26H21.29a.74.74,0,0,0,.56-.26.73.73,0,0,0,.15-.6l-.53-2.88h1.81A.72.72,0,0,0,24,17.8V7A.72.72,0,0,0,23.28,6.26ZM4.55,3.36a.24.24,0,0,1,.23-.17h14.4a.23.23,0,0,1,.23.17l.9,2.9H3.68ZM20.43,20.81H3.57L4.65,15h14.7Zm2.13-3.73H21.2l-.54-2.9a.72.72,0,0,0-.71-.59H4.05a.72.72,0,0,0-.71.59l-.54,2.9H1.44V7.7H22.56ZM21,8.94H18.8a.73.73,0,0,0,0,1.45H21a.73.73,0,0,0,0-1.45Zm-3.71,9.32H6.72a.73.73,0,0,0,0,1.45H17.28a.73.73,0,0,0,0-1.45Z"/>
</svg>
