<svg id="Layer_1" data-name="Layer 1" xmlns="http://www.w3.org/2000/svg" width="40" height="60.7" viewBox="0 0 40 60.7">
  <path d="M5.11.53c-.07.46-.25,2-.25,2V4.67c0,.14,0,1.41,0,1.66S5,7.56,5.19,8.48c0,.27.34,1.4.4,1.59.11.38.32,1,.32,1l.23.71.08.55L6,13.25l1.82,1.83L10,17.3,12,19.68a7.37,7.37,0,0,1,2,4.77,12.59,12.59,0,0,0,.72,3.82L14.17,30l-.48.72-.16.55-.39.56-.24,1.5-.32,1.75s-.28.65-.63,1.59c-.29.77-.64,1.56-.88,2.31-.32,1-.77,2-1,2.7-.29,1.11-.64,2.62-.64,2.62l-.32.24s-1.78-.65-2.3-.79c-.34-.1-1.62-.37-2.47-.56C3.9,43.1,3.52,43,3.52,43s-1-1-1.75.64A7.06,7.06,0,0,1,.42,45.83s-1.28,1.37.63.56,1.12-1,1.12-1,.36-1,1.11-.15a2.51,2.51,0,0,0,1.83.87,6.4,6.4,0,0,0,1.11.8c.88.48,1.17.74,1.75,1,.8.39,1.67.79,1.67.79l2.39.24a5.65,5.65,0,0,0,2.62-2.54,9.39,9.39,0,0,1,1.9-2.78l1-1.67.55-.8s.76-1.81,1.83.08,2.86,4.37,2.86,4.37l.72,1,.87.56.16,1s2.4,2.92,2.78,3.42,2.44,3.28,2.78,3.81c.23.33.91,1.17,1.35,1.91.19.31,1.07,1.26,1.36,1.67s.4.61.63.95c1.11,1.61,1.33.22,1.35-1.12.05-3.08-.95-3.89-.95-3.89s-1.26-3.42-1.43-3.73-.68-1.76-.8-2S31.16,48,31,47.58s-1.08-2.29-1.2-2.54c-.31-.7-1.08-2.5-1.27-2.86-.08-.17-1-2.63-1-2.63s-1.12-2-1.19-2.22-.75-1.87-1-2.38c-.1-.26-.87-1.6-.87-1.6l-.16-.55,1.43-3.1,2-3.26,1.67-2,1.75-2.14,1.91-2.18,2.22-2.51,2.3-2.54,2-2.39.4-.24v-1l-.16-.48-.56-.63-.47.95-2.55,2.55-5.32,3.34-3.66,2.38-1,.63a.77.77,0,0,1-.95,0A10.76,10.76,0,0,0,24,19.29l-.4-.16-.08-.88L24,17.06l.39-1S25,13.81,24,12.77a7.33,7.33,0,0,1-1.2-1.51,1.76,1.76,0,0,0-2.62.24A4.57,4.57,0,0,0,19,14l-.56.72s0-.11,0,.39L18.3,16l-.16,1.43L16.48,16c-.36-.3-1.43-1.1-1.52-1.19-.55-.55-.89-.77-1.51-1.35L12,12.06l-1.28-1.27-.63-.4-.48-.72L9.24,9s-.8-1-.87-1.2c-.2-.46-.88-1.82-.88-1.82L6.7,3.87,6.14,2.28,5.75,1,5.67.53s-.38-1.19-.56,0"/>
</svg>
