<svg id="map" xmlns="http://www.w3.org/2000/svg" width="820" height="770" viewBox="0 0 820 770">
  <defs>
    <style>
      .cls-1 {
        opacity: 0.3;
      }

      .cls-2, .cls-5 {
        fill: none;
        stroke: #fff;
        stroke-miterlimit: 10;
      }

      .cls-3 {
        opacity: 0.6;
      }

      .cls-4 {
        fill: #fff;
      }

      .cls-5 {
        stroke-width: 1.5px;
        stroke-dasharray: 6 6;
        opacity: 0.15;
      }
    </style>
  </defs>
  <g class="cls-1">
    <polygon class="cls-2" points="85.65 0.43 75.65 8.68 77.15 15.43 88.65 15.68 91.15 13.18 103.15 12.43 128.4 1.18 125.65 5.18 109.9 11.43 108.15 16.18 116.4 17.18 127.4 17.68 133.4 19.43 149.15 14.93 159.15 5.18 152.9 17.68 133.65 21.68 125.65 23.68 126.4 21.18 114.4 19.93 102.65 21.18 93.65 24.93 79.4 29.43 77.4 43.93 84.4 52.43 89.15 52.43 92.65 61.18 101.15 60.18 107.9 57.43 100.65 54.18 109.4 52.93 118.9 51.43 119.65 49.43 115.15 46.43 122.65 44.93 123.4 52.18 155.4 53.43 169.9 57.93 162.15 59.18 145.15 54.68 111.4 54.93 111.9 57.43 116.65 60.93 147.4 59.93 151.15 65.18 143.4 62.43 120.4 63.43 129.15 68.43 155.15 67.43 168.15 63.68 179.9 63.93 195.4 58.93 197.15 63.18 212.9 48.93 212.65 40.18 216.9 45.43 216.4 51.68 202.4 64.18 209.9 70.68 208.9 79.43 205.65 70.18 201.15 66.93 168.4 67.68 158.65 71.93 142.4 70.18 135.4 74.93 114.15 61.93 110.9 63.43 100.65 63.18 102.15 69.18 109.65 67.68 110.65 80.93 126.4 95.93 140.15 98.43 160.15 107.43 164.65 113.93 171.4 114.18 178.4 110.68 185.15 100.93 168.65 101.68 155.15 93.68 156.15 91.18 166.9 97.43 182.4 96.93 196.15 87.68 214.65 90.93 214.65 93.93 200.15 92.18 192.4 91.43 191.65 94.43 199.4 97.43 208.15 103.93 215.65 103.68 233.4 88.68 230.15 82.68 229.65 73.93 233.15 70.93 236.15 82.43 242.4 91.18 274.4 92.93 272.15 96.68 255.15 95.93 245.4 98.18 236.65 93.68 229.65 99.68 224.65 107.93 228.65 112.18 232.15 105.43 238.9 108.68 234.9 111.93 237.65 115.43 258.9 109.43 271.4 109.93 273.15 103.68 275.65 108.68 271.15 116.68 276.4 123.43 292.15 120.93 279.9 130.43 269.15 136.68 271.9 142.68 279.65 143.43 292.9 137.43 300.65 137.18 306.9 140.18 314.65 137.18 328.9 136.68 334.9 123.18 338.15 122.68 337.65 115.68 334.65 113.68 335.15 103.43 342.9 97.68 349.4 97.18 351.65 92.18 349.15 89.68 347.15 81.18 344.15 76.93 344.15 67.68 340.65 62.18 346.65 62.93 351.65 59.68 352.15 77.68 358.15 88.43 352.15 104.18 347.15 104.43 340.4 108.68 347.4 117.43 345.65 126.93 335.15 131.18 333.15 138.68 329.9 145.18 325.9 142.43 315.65 141.93 311.15 143.93 293.65 144.18 281.65 148.93 260.4 149.68 265.15 159.18 253.65 157.18 239.15 164.68 228.9 165.18 232.9 162.18 228.65 159.43 216.15 159.68 216.65 164.93 222.65 172.43 246.15 172.68 249.65 169.68 258.15 170.43 268.9 166.43 272.4 159.93 298.65 149.18 301.9 152.18 277.4 160.43 272.15 169.18 260.4 173.18 272.4 177.68 280.65 177.68 299.4 167.18 296.9 172.68 286.9 176.18 290.65 182.18 306.65 180.93 316.9 172.93 316.65 169.43 322.4 169.43 327.4 171.93 319.65 176.43 332.65 177.93 325.65 181.93 330.65 190.18 337.15 189.93 344.65 183.18 345.65 171.43 351.15 166.18 350.15 155.68 353.9 141.43 358.9 140.93 359.65 133.43 369.4 134.43 357.4 144.68 352.9 152.68 354.4 168.43 346.4 184.68 359.4 186.93 369.65 181.93 373.4 176.68 370.65 169.68 374.15 163.68 375.65 177.18 381.65 183.68 386.65 177.43 386.15 183.43 396.9 194.18 407.15 187.18 405.15 176.18 418.65 170.43 419.65 162.93 428.65 157.43 430.4 148.43 428.15 143.18 431.65 131.93 424.4 125.18 422.15 113.93 429.4 109.68 440.15 91.93 445.65 99.93 439.4 104.68 430.9 121.43 438.65 129.18 437.15 139.93 436.4 152.93 433.15 164.18 426.9 166.43 422.15 176.18 412.9 180.18 409.65 196.93 411.65 211.93 418.9 206.18 421.65 200.43 420.65 192.43 424.4 191.43 426.15 200.43 424.65 207.18 441.4 212.68 457.4 197.43 459.15 187.43 464.4 190.18 475.15 189.43 496.4 177.18 494.9 184.68 481.65 190.43 476.9 196.93 463.9 195.18 455.9 209.18 469.65 225.68 463.9 241.43 452.65 247.43 454.9 251.93 446.65 259.68 451.9 263.43 453.65 257.18 456.15 258.18 453.65 265.93 457.9 276.68 444.65 260.18 439.65 260.18 439.65 263.43 449.15 278.43 477.65 301.93 478.15 310.93 488.4 315.43 503.15 316.18 506.9 319.68 510.15 317.43 509.65 314.43 523.65 313.93 532.15 309.43 530.9 303.68 535.4 302.68 533.65 296.18 536.4 286.43 538.9 286.68 537.9 295.43 541.9 300.18 542.65 307.18 550.9 304.93 553.4 296.43 545.4 288.93 540.4 273.68 562.15 260.43 565.65 253.18 545.65 235.18 547.65 233.68 558.65 239.18 568.15 233.43 571.65 235.68 562.15 242.43 571.9 253.68 571.4 263.93 562.9 264.68 544.9 275.68 548.65 285.93 558.4 287.43 557.4 301.93 549.65 314.43 560.9 329.43 566.9 327.93 561.4 337.93 566.15 340.68 600.4 327.18 596.15 335.93 579.65 340.68 569.15 348.93 571.9 367.68 567.15 367.43 565.15 352.43 552.65 321.18 544.9 316.93 536.65 323.43 533.15 337.68 538.4 341.68 537.65 346.18 545.65 365.43 552.15 365.68 555.9 373.18 572.15 372.93 574.4 377.43 601.65 389.43 606.9 377.93 604.9 363.18 620.9 355.43 631.9 346.18 631.9 340.43 637.65 334.18 639.4 343.93 632.4 360.68 635.4 380.43 629.9 394.43 654.4 402.18 670.15 403.43 676.65 390.93 680.65 373.68 680.65 392.18 673.15 402.93 679.4 405.93 645.9 405.68 646.4 409.43 632.4 410.18 632.9 414.18 639.15 419.43 636.9 431.43 643.15 439.18 656.15 437.68 650.15 444.43 644.65 442.43 644.9 447.43 650.9 452.68 654.9 467.43 662.15 464.68 658.4 454.18 667.4 447.18 679.65 446.43 679.15 451.18 679.65 454.68 687.4 456.68 698.9 466.93 691.4 466.93 687.65 470.68 688.9 473.93 692.65 471.93 694.15 477.43 691.4 482.18 701.9 498.43 707.4 500.18 705.65 506.68 708.4 513.43 713.9 503.43 722.4 503.18 725.9 509.18 726.9 526.43 733.9 533.68 734.65 539.43 725.15 541.93 728.4 560.93 723.15 561.18 721.15 558.68 714.9 559.43 713.15 550.43 703.15 553.68 705.9 561.68 705.4 569.43 712.15 569.68 718.9 563.43 717.9 569.93 720.65 576.93 738.9 587.43 740.65 594.18 738.4 600.68 731.9 596.68 721.15 603.43 721.15 611.18 725.9 622.68 730.65 624.68 741.65 634.93 742.9 632.93 730.4 616.43 731.15 604.18 739.4 604.43 742.15 610.18 743.65 625.68 754.4 638.18 760.9 637.93 763.9 640.93 759.9 645.43 761.15 651.93 747.9 658.93 746.9 669.43 738.65 681.93 741.15 695.93 734.4 699.43 734.15 707.43 744.4 721.43 738.65 719.68 736.65 724.68 739.15 735.93 743.15 740.18 742.4 745.43 746.65 753.18 746.4 764.68 734.9 770.68 737.65 778.18 731.4 778.43 727.65 774.68 729.15 769.68 727.9 759.93 733.4 752.93 730.4 736.43 724.4 747.43 724.15 760.43 721.15 767.93 722.65 776.18 718.15 784.43 716.65 791.93 704.4 807.68 691.65 807.93 688.9 800.43 683.15 798.93 671.9 803.93 669.4 798.43 662.15 804.68 659.4 802.68 671.65 793.93 671.15 790.18 673.9 777.18 685.15 768.93 686.65 755.93 691.15 765.18 685.9 782.18 692.15 794.18 698.65 789.18 698.65 785.18 694.9 778.93 701.4 762.18 706.65 764.18 704.9 776.68 712.9 777.18 718.65 774.93 720.15 760.93 721.4 746.43 724.9 736.93 719.4 725.93 707.15 729.18 702.15 716.93 703.15 712.43 713.65 723.18 712.9 709.68 707.9 700.68 710.4 698.18 715.65 704.43 716.65 718.68 724.9 722.93 727.15 717.68 726.15 706.18 723.9 694.93 728.15 690.43 721.9 663.43 713.4 658.68 711.65 659.43 717.4 667.68 716.9 673.93 706.4 678.43 696.65 694.43 696.15 706.43 673.9 716.18 656.9 742.43 652.9 759.18 659.15 760.18 674.65 751.93 682.15 751.93 664.65 762.93 655.65 763.43 650.4 766.43 645.65 763.43 651.65 742.18 666.9 717.18 675.65 709.18 680.9 692.68 680.65 683.68 686.65 683.68 686.9 674.68 690.65 682.68 684.15 702.18 689.4 703.18 694.9 692.93 694.9 683.43 702.9 675.68 703.4 670.43 708.15 669.43 706.15 659.68 699.9 644.43 704.65 640.68 700.65 629.43 694.15 640.18 690.15 631.43 695.4 626.18 689.4 621.43 670.9 628.93 662.4 629.93 664.9 637.93 661.4 640.93 656.9 626.43 650.4 617.43 629.4 625.43 578.9 616.43 534.9 613.43 510.9 597.93 506.4 598.93 460.4 573.93 451.9 574.43 461.4 585.43 453.4 619.43 456.4 625.93 463.4 663.93 488.9 694.43 498.9 732.43 503.9 764.43 516.9 793.93 519.4 838.93 526.9 837.43 524.4 820.93 537.4 820.93 540.9 829.93 562.4 835.43 533.9 849.43 526.9 844.93 530.4 868.03 884.9 868.1 884.9 0 85.65 0.43"/>
    <polygon class="cls-2" points="701.74 509.76 706.07 518.43 710.9 523.1 709.4 526.1 704.24 520.1 698.24 509.93 701.74 509.76"/>
    <polygon class="cls-2" points="708.74 538.43 715.24 544.1 715.07 545.76 708.24 548.93 708.74 538.43"/>
    <polygon class="cls-2" points="704.4 540.43 698.74 546.43 696.74 537.6 699.4 535.26 704.4 540.43"/>
    <polygon class="cls-2" points="688.9 537.93 690.74 540.1 690.9 545.76 686.57 545.1 686.24 541.1 688.9 537.93"/>
    <polygon class="cls-2" points="680.24 544.93 681.74 555.26 682.57 561.93 686.57 562.43 686.4 568.1 678.07 563.93 671.74 562.93 670.74 553.26 675.57 545.1 680.24 544.93"/>
    <polygon class="cls-2" points="681.24 533.93 679.74 537.26 671.74 536.43 670.07 530.76 666.57 527.1 665.9 530.1 666.74 533.26 664.4 534.26 662.57 525.26 675.74 514.1 695.4 523.6 687.57 533.43 684.9 533.26 678.07 518.26 674.07 518.6 676.74 526.93 681.24 533.93"/>
    <polygon class="cls-2" points="668.4 536.76 672.74 541.76 671.07 543.76 665.9 543.6 664.4 538.6 668.4 536.76"/>
    <polygon class="cls-2" points="650.9 531.6 661.9 543.93 662.9 547.93 667.74 549.26 662.4 553.76 663.57 559.6 666.07 559.93 665.74 561.76 659.74 561.43 654.9 555.93 649.9 554.26 644.07 548.26 644.4 541.1 647.74 536.26 646.4 533.1 650.9 531.6"/>
    <polygon class="cls-2" points="657.24 516.6 659.24 520.26 662.4 518.43 663.24 513.6 657.24 516.6"/>
    <polygon class="cls-2" points="626.74 530.26 631.24 534.1 631.24 536.26 628.74 537.1 625.9 532.6 626.74 530.26"/>
    <polygon class="cls-2" points="705.24 571.76 715.07 573.6 716.74 577.26 713.74 581.1 716.74 581.43 724.4 588.76 720.57 594.6 711.07 591.43 711.07 595.1 705.74 595.76 705.74 599.76 703.4 603.1 697.9 603.26 698.57 605.93 708.9 605.6 717.4 616.43 719.24 634.26 721.74 642.6 724.74 642.26 724.24 630.43 725.9 628.43 742.07 641.93 742.07 647.26 739.74 648.93 741.24 652.26 745.74 652.1 739.74 663.93 736.74 659.93 732.07 657.93 731.57 652.1 724.07 648.43 718.4 650.26 713.07 642.6 713.4 619.43 705.4 616.1 694.4 607.26 692.57 602.6 699.24 587.1 705.24 578.6 705.24 571.76"/>
    <polygon class="cls-2" points="734.53 754.43 740.4 756.93 740.4 758.8 733.4 762.05 732.28 760.3 734.4 757.3 733.4 755.18 734.53 754.43"/>
    <polygon class="cls-2" points="608.53 373.8 612.53 377.93 620.28 372.93 620.65 376.05 625.78 376.43 626.15 374.3 624.03 371.18 624.28 367.18 618.65 361.8 612.15 361.68 608.53 373.8"/>
    <polygon class="cls-2" points="626.65 357.55 623.4 360.05 627.28 364.68 629.53 362.55 626.65 357.55"/>
    <polygon class="cls-2" points="625.78 382.05 626.28 386.18 622.9 391.3 614.4 392.8 614.4 389.43 621.03 382.8 625.78 382.05"/>
    <polygon class="cls-2" points="467.15 309.43 472.15 317.93 497.15 326.18 509.4 345.43 523.15 357.93 527.15 367.18 523.15 368.43 508.15 357.18 487.9 343.18 482.65 333.93 472.4 330.18 464.9 321.43 463.65 314.43 467.15 309.43"/>
    <polygon class="cls-2" points="440.65 348.93 446.15 353.18 456.15 369.18 450.15 369.68 439.9 359.18 440.65 348.93"/>
    <polygon class="cls-2" points="459.15 355.93 454.65 360.68 459.65 368.43 461.4 363.43 468.65 363.43 459.15 355.93"/>
    <polygon class="cls-2" points="499.9 362.93 497.65 369.93 501.9 374.68 519.15 376.68 521.4 371.93 515.9 371.43 512.65 366.93 499.9 362.93"/>
    <polygon class="cls-2" points="540.9 315.68 534.65 321.93 530.65 339.18 523.65 335.43 517.4 335.18 516.65 327.18 520.9 321.43 515.9 323.93 514.15 320.43 520.4 318.18 530.9 317.93 536.9 314.18 540.9 315.68"/>
    <polygon class="cls-2" points="387.15 214.18 401.65 233.18 395.4 246.43 392.65 248.43 397.9 257.68 400.15 266.93 400.9 272.93 398.9 274.93 393.4 271.68 391.9 256.43 377.15 245.68 377.9 239.43 374.15 227.18 379.65 226.18 381.9 222.93 374.4 220.18 374.65 217.93 387.15 214.18"/>
    <polygon class="cls-2" points="71.15 91.68 72.15 96.93 65.15 100.18 60.4 96.93 55.65 98.43 52.4 94.68 58.4 93.93 63.65 89.68 71.15 91.68"/>
    <polygon class="cls-2" points="83.15 95.93 71.4 102.18 92.9 112.93 94.15 109.68 89.9 99.68 83.15 95.93"/>
    <polygon class="cls-2" points="184.9 110.43 188.15 117.68 200.15 123.43 210.15 123.43 218.9 117.93 228.4 121.43 229.65 119.18 221.9 111.43 211.15 107.43 207.4 110.18 198.65 111.18 204.9 106.43 197.15 99.93 189.15 104.93 190.9 108.68 184.9 110.43"/>
    <polygon class="cls-2" points="254.15 112.43 243.9 117.93 246.65 120.93 238.9 122.68 234.15 129.93 229.4 129.93 230.65 126.18 220.15 125.68 220.15 128.43 225.4 130.68 224.9 138.68 222.15 144.18 225.65 147.18 235.65 146.93 234.9 142.68 240.65 140.68 249.9 146.43 261.4 146.43 264.4 143.18 263.9 134.93 274.15 129.93 276.65 126.93 270.9 124.68 267.4 113.93 254.15 112.43"/>
    <polygon class="cls-2" points="253.4 151.43 240.9 160.43 234.9 160.68 230.4 156.18 227.15 153.93 232.4 150.43 237.9 151.93 253.4 151.43"/>
    <polygon class="cls-2" points="220.07 134.93 220.15 138.26 219.4 139.26 214.57 139.34 214.74 137.34 217.57 134.68 220.07 134.93"/>
    <polygon class="cls-2" points="210.24 152.34 212.4 154.68 211.24 157.01 207.99 155.84 206.15 153.18 210.24 152.34"/>
    <polygon class="cls-2" points="204.9 159.09 209.49 162.34 209.32 164.59 202.65 165.09 201.07 162.84 200.82 159.43 204.9 159.09"/>
    <polygon class="cls-2" points="322.57 182.26 327.4 188.59 326.9 191.93 324.24 193.09 313.07 193.26 302.74 190.09 302.57 186.76 313.24 182.43 322.57 182.26"/>
    <polygon class="cls-2" points="329.24 192.93 333.57 194.59 353.74 187.43 357.24 189.43 357.24 193.09 345.07 199.09 323.57 198.09 323.4 195.09 329.24 192.93"/>
    <polygon class="cls-2" points="359.74 190.09 359.24 196.09 354.07 197.59 354.07 199.09 358.9 202.76 372.07 202.26 372.4 195.43 376.9 194.59 379.74 189.26 374.24 183.59 370.74 184.76 370.74 187.59 359.74 190.09"/>
    <polygon class="cls-2" points="370.9 205.76 370.9 215.09 375.57 215.59 383.9 211.43 390.4 211.09 400.07 227.09 403.07 225.43 405.4 225.26 407.9 216.26 403.24 209.09 399.57 199.09 390.24 193.59 384.9 187.09 382.4 187.76 379.24 195.76 379.57 205.59 370.9 205.76"/>
    <polygon class="cls-2" points="401.74 193.59 404.57 192.93 408.4 199.43 404.4 200.43 401.74 201.09 401.74 193.59"/>
    <polygon class="cls-2" points="419.4 210.09 415.24 214.93 419.57 219.26 422.4 214.26 419.4 210.09"/>
    <polygon class="cls-2" points="411.07 219.76 415.57 230.76 413.57 234.26 410.74 229.59 407.24 235.43 407.24 240.26 404.74 245.43 401.57 243.43 403.07 239.59 403.24 231.59 408.74 220.76 411.07 219.76"/>
    <polygon class="cls-2" points="420.07 226.93 419.74 233.09 421.9 237.09 418.57 241.76 419.74 246.59 413.07 247.43 413.24 252.59 420.57 258.1 420.24 263.26 420.24 267.1 427.74 259.26 432.57 259.1 433.57 257.26 428.9 245.26 431.07 243.43 420.07 226.93"/>
    <polygon class="cls-2" points="439.4 234.76 437.57 237.93 434.57 237.93 432.4 240.59 437.24 249.26 443.24 249.76 449.24 241.76 449.4 236.76 440.74 229.59 440.9 226.43 448.74 231.93 451.9 222.93 452.74 213.59 447.9 214.43 444.9 217.93 434.57 216.93 428.74 213.59 424.24 220.76 422.07 224.26 424.4 229.76 429.74 236.09 435.24 235.59 439.4 234.76"/>
    <polygon class="cls-2" points="414.07 256.93 414.4 259.26 411.57 262.43 410.24 257.93 414.07 256.93"/>
    <polygon class="cls-2" points="430.24 273.43 430.9 278.26 428.74 279.76 426.07 273.76 430.24 273.43"/>
    <polygon class="cls-2" points="217.9 126.43 215.65 130.43 211.65 130.18 209.15 127.68 212.4 125.18 217.9 126.43"/>
  </g>
  <g class="cls-3">
    <polygon class="cls-2" points="608.4 505.43 610.15 509.43 604.9 514.18 597.15 507.18 596.65 502.68 600.4 500.18 595.15 494.18 595.65 483.93 592.15 479.68 592.15 471.18 609.9 486.43 603.15 487.18 605.4 490.68 619.15 502.93 614.15 505.68 608.4 505.43"/>
    <polygon class="cls-2" points="624.15 496.18 624.9 502.43 632.65 508.43 639.65 509.93 642.15 507.18 636.9 504.68 629.9 495.18 624.15 496.18"/>
    <polygon class="cls-2" points="625.15 489.93 625.15 492.18 635.4 494.93 632.4 487.93 625.15 489.93"/>
    <polygon class="cls-2" points="625.9 482.93 624.65 486.18 620.4 487.68 612.4 477.93 597.65 468.93 591.4 460.18 593.65 458.43 604.15 469.68 625.9 482.93"/>
    <polygon class="cls-2" points="579.53 438.43 588.15 451.3 587.53 453.55 581.4 446.18 578.65 441.55 579.53 438.43"/>
    <polygon class="cls-2" points="653.4 500.76 652.57 504.26 645.57 504.93 640.57 503.1 638.9 500.6 640.57 498.76 640.57 496.43 644.57 496.43 648.24 498.93 653.4 500.76"/>
    <polygon class="cls-2" points="614.4 517.26 613.24 521.93 615.9 526.1 616.57 533.93 620.57 544.26 620.57 551.76 621.9 556.26 626.74 554.43 630.74 561.76 626.57 563.26 626.74 569.93 618.4 571.1 614.24 565.6 605.57 567.93 602.9 576.43 596.07 586.76 593.57 589.1 590.4 587.1 591.4 583.76 582.74 587.1 576.57 581.43 578.07 579.93 584.57 579.6 586.57 577.43 586.57 573.1 577.57 575.6 573.07 580.1 562.24 579.76 562.07 577.26 551.74 576.6 548.74 573.76 506.07 556.6 504.07 552.76 498.07 553.1 485.57 548.43 494.07 543.1 491.9 539.43 480.4 546.26 453.07 536.26 442.07 524.76 404.9 510.26 405.07 498.6 402.4 498.93 399.9 503.6 392.74 498.6 402.57 492.93 409.07 482.93 414.9 482.6 418.24 478.76 415.4 473.26 429.74 464.43 421.74 462.93 417.07 458.1 414.07 458.1 418.07 464.1 408.57 466.26 402.57 465.26 397.24 459.43 395.74 468.1 393.07 470.93 382.9 467.1 382.07 458.1 390.4 454.93 381.57 456.1 374.4 453.6 372.4 462.76 359.24 475.26 352.24 470.1 348.57 465.1 348.4 468.6 346.07 468.26 326.24 447.6 317.4 448.6 310.4 442.93 307.24 435.93 309.07 433.76 313.24 439.76 316.74 441.76 319.57 439.1 326.07 442.6 338.57 432.93 346.9 416.93 335.74 423.1 330.24 432.76 328.07 430.76 326.07 435.43 322.24 435.43 324.07 429.93 326.74 426.6 325.9 419.1 330.24 411.43 323.4 415.26 319.9 414.43 318.9 399.1 316.9 407.76 316.57 412.1 311.74 408.93 303.9 413.6 300.07 416.26 294.07 414.1 293.74 405.1 301.9 403.76 303.57 395.43 307.57 386.6 307.07 381.26 301.9 387.43 300.07 393.6 293.57 400.76 288.4 398.43 288.24 385.6 284.24 387.6 281.9 384.93 291.74 380.93 291.07 376.1 273.74 385.6 268.57 384.93 268.74 377.6 265.07 377.6 263.57 371.26 260.9 374.1 263.57 381.1 263.07 394.1 255.74 390.76 245.74 379.93 245.4 372.43 242.07 372.26 236.4 380.93 238.9 383.1 238.9 389.1 231.9 390.1 226.07 381.76 228.57 377.1 226.57 374.1 227.4 362.76 226.24 351.26 234.07 348.6 238.57 340.1 261.07 341.43 272.4 337.43 284.4 337.1 282.57 331.76 271.07 334.26 260.57 338.43 246.57 337.6 239.24 336.1 235.4 331.93 244.07 320.1 241.74 316.43 241.74 311.93 237.9 310.6 236.24 312.6 240.4 319.26 235.24 321.76 235.24 325.76 230.57 329.1 222.9 328.93 218.24 314.26 217.24 287.1 214.74 291.1 214.74 296.1 212.24 298.26 205.74 296.6 199.9 287.93 193.07 275.43 191.9 281.1 196.07 284.26 196.4 290.6 193.9 295.1 185.57 297.1 183.57 290.6 183.9 282.1 181.4 273.6 180.9 295.76 178.07 296.93 172.9 293.43 168.9 285.1 172.9 300.6 154.4 298.93 143.07 279.1 155.9 271.6 157.4 268.1 149.07 266.93 152.07 260.6 159.74 260.43 156.07 257.6 163.4 251.26 160.24 247.59 149.57 253.76 137.4 241.43 136.57 235.76 134.9 235.76 134.9 243.59 140.9 249.93 140.4 258.76 132.24 265.93 121.07 265.6 114.9 255.93 115.07 249.26 111.07 247.09 113.9 242.93 116.74 241.76 115.74 236.26 107.57 247.93 97.9 249.93 95.74 247.59 94.24 240.43 76.9 256.43 66.07 253.59 62.07 249.43 64.07 243.93 75.4 233.26 76.07 230.09 83.74 226.43 75.57 224.76 69.07 219.76 72.07 212.43 66.4 206.76 56.57 211.09 52.57 205.76 60.4 190.59 59.57 183.59 71.4 182.26 75.24 184.59 81.74 179.09 97.57 179.43 103.07 178.93 113.4 197.76 118.74 202.59 120.57 201.76 113.9 192.76 107.4 179.59 101.9 172.43 109.9 161.76 123.24 158.59 122.74 156.93 105.4 159.76 94.9 154.93 77.57 155.43 52.9 146.93 53.07 149.09 80.74 159.59 98.9 161.09 100.57 168.09 70.74 178.43 69.9 174.93 65.4 176.59 64.4 179.09 49.9 181.59 48.07 176.59 54.07 168.76 49.4 168.59 43.4 178.26 47.74 183.26 44.9 186.43 40.57 180.26 36.74 180.76 28.4 169.93 24.74 169.43 21.07 162.93 21.74 157.26 12.24 154.09 10.9 148.26 15.9 143.59 8.57 142.93 3.24 132.76 3.74 129.09 0.57 125.93 2.24 120.76 10.57 117.59 19.07 118.26 26.24 110.93 32.9 111.43 39.07 103.76 46.9 104.09 51.07 107.26 56.57 103.76 66.07 104.76 66.07 108.76 78.07 109.76 96.07 117.76 112.07 123.26 112.07 129.93 113.9 130.76 120.07 129.93 122.24 127.59 123.24 132.26 121.24 138.09 126.9 137.59 136.07 146.76 148.07 151.26 154.07 154.26 161.9 154.93 165.4 159.43 172.57 159.93 181.4 165.76 199.07 167.93 220.74 176.76 222.9 178.76 258.07 180.09 259.4 181.93 273.57 182.76 291.4 189.09 303.4 198.93 317.9 198.43 330.9 204.26 346.24 201.59 365.9 211.76 366.24 218.76 370.9 227.26 374.07 246.93 386.74 260.43 389.24 265.76 392.9 279.76 399.24 291.26 402.4 291.93 406.07 299.43 432.4 326.6 433.07 331.93 429.07 334.93 423.4 332.76 423.24 334.76 433.4 349.43 435.07 357.1 446.9 373.26 455.74 375.26 478.07 394.43 491.24 391.43 499.57 395.93 502.74 399.43 508.07 399.43 514.9 404.76 520.4 403.93 526.9 409.76 520.74 410.1 520.74 413.43 533.4 413.43 546.24 417.43 547.4 428.76 551.07 433.93 554.74 433.43 556.07 431.6 563.4 436.26 570.74 450.1 569.74 454.43 571.24 461.6 569.24 462.76 563.9 458.76 561.9 459.43 575.9 473.43 577.4 477.26 591.74 490.6 589.9 497.1 590.9 498.76 594.4 498.26 595.07 502.1 591.57 505.76 587.24 505.43 587.4 509.43 592.74 510.43 599.07 519.76 596.74 524.76 600.24 532.1 600.4 540.93 596.74 544.43 596.9 548.26 606.74 541.43 605.57 529.76 608.57 524.1 606.74 519.93 606.74 517.76 614.4 517.26"/>
    <polygon class="cls-2" points="141.4 264.18 144.15 269.93 139.9 276.18 138.4 273.93 134.65 273.93 134.65 269.18 141.4 264.18"/>
    <polygon class="cls-2" points="198.65 294.43 195.65 298.18 184.15 302.93 174.65 304.68 175.15 308.43 188.65 312.93 195.65 309.43 204.15 308.68 203.65 311.43 196.65 311.43 180.15 321.68 176.9 320.68 193.65 338.68 195.15 344.68 213.65 351.43 219.65 348.93 219.4 338.68 221.9 335.93 216.65 326.43 217.9 321.43 212.15 299.93 205.15 299.18 198.65 294.43"/>
    <polygon class="cls-2" points="233.4 334.43 227.9 338.43 227.4 341.68 232.15 341.93 235.65 338.18 236.15 334.68 233.4 334.43"/>
    <polygon class="cls-2" points="279.9 387.43 285.9 392.43 286.65 403.18 289.9 408.93 285.15 414.43 279.15 410.68 271.65 410.68 268.9 407.18 266.65 398.43 268.65 394.93 268.15 387.18 274.9 390.18 279.9 387.43"/>
    <polygon class="cls-2" points="320.57 417.6 321.24 428.6 317.9 436.6 311.24 431.26 314.9 423.93 310.9 422.26 310.24 427.6 304.9 424.26 305.57 416.26 311.24 415.6 320.57 417.6"/>
    <polygon class="cls-2" points="299.57 420.93 303.65 425.93 301.15 427.93 300.9 432.43 298.15 432.93 291.15 426.68 290.9 420.93 299.57 420.93"/>
    <polygon class="cls-2" points="412.24 470.93 411.57 476.93 406.24 479.93 405.9 475.26 412.24 470.93"/>
  </g>
  <circle class="cls-2" cx="648.9" cy="407.93" r="6"/>
  <circle class="cls-4" cx="619.9" cy="564.43" r="12.33"/>
  <circle class="cls-2" cx="746.4" cy="717.93" r="6"/>
  <line class="cls-5" x1="884.9" y1="462.93" x2="693.9" y2="462.93"/>
</svg>
