<svg id="Layer_1" data-name="Layer 1" xmlns="http://www.w3.org/2000/svg" xmlns:xlink="http://www.w3.org/1999/xlink" width="383" height="383" viewBox="0 0 383 383">
  <defs>
    <style>
      .cls-1 {
        fill: #79bbcb;
      }

      .cls-2 {
        clip-path: url(#clip-path);
      }

      .cls-3 {
        fill: #1f8da8;
      }

      .cls-10, .cls-4, .cls-6, .cls-7, .cls-9 {
        fill: none;
      }

      .cls-4 {
        stroke: #4ca4b9;
        stroke-dasharray: 9 3;
      }

      .cls-10, .cls-4, .cls-6, .cls-9 {
        stroke-miterlimit: 10;
      }

      .cls-4, .cls-6 {
        stroke-width: 1.5px;
      }

      .cls-5 {
        fill: #403e41;
        opacity: 0.2;
      }

      .cls-10, .cls-6, .cls-9 {
        stroke: #fff;
      }

      .cls-8 {
        fill: #fff;
      }

      .cls-9 {
        stroke-width: 1.09px;
      }
    </style>
    <clipPath id="clip-path">
      <circle class="cls-1" cx="191.5" cy="191.5" r="191.5"/>
    </clipPath>
  </defs>
  <g>
    <circle class="cls-1" cx="191.5" cy="191.5" r="191.5"/>
    <g class="cls-2">
      <path class="cls-3" d="M123.33,373l3.5-4.67L125,367l-3.17.67L119.17,362l6.33-.83-3.67-3.67L119,359l-1.33-9.67-2.5-3-.17-9.66-7-8.34-1-6.66.17-9.67,9.66,5.33,14.5,2.67,12,.67,4.67,4.16,1.33-3.5H151l5.33,11.5.34,6.34-1,6.83-8.34,4.83.17,5.5,7-3.16,5.83-6.34-.83-14.66,2.5-6.5L159.17,317,156,311.67l1.83-3L155,298.33l-6.83-10.16h-3l-.5,3.66-3-2.33-3.5-12.5.83-4-3.33-.67-1.17,3.5-2.33.84-8.84-4.5-8.5-7.17-11-11.5,4.84-5-1.5-4.5H99l-4.67-6L90,242.33l-10.83-1.5-7.67-4.5-7.83.67.33-2.17L65.5,233l-4.67-4.83L43.5,221.33,42.83,218,39,216.5,36.67,211,46,209.67l-8.5-1.84,4.5-6.5.33-3L37.83,201l-1.16-4.17-2.84-3.16-.33-5,3-3.34-2.83-1.16L35.83,175l-2.16.5-3.84,15.17-3-2.17L29,175.83,30.5,174l-6.67-1.83-2.33-5L16.83,166l-.16,6.67-2.84-5.84-.16-8.5-3.84.17v7l-8.66-7.17L-2.33,91.5l43-58.17L157.5-21l129,14.5,112,106-5.5,204L257.5,398l-132-14Zm13.84-65.5-.34-3.67-2-1.5-.16,3.17h-1.5l.16-2.83-1.83-5-4-5.84v-6.66l-3.67-2.67-6.16-.5-1-3.17-9.34-2.66-5.66-6.67.33-3.67-7.5-8.16-1.33-4.34L87,243.17l-8.33-.67-3.84-3.33L63.5,239l-13.17-5-12.66-8.5-7.5-.33L23,228.67l1.83,4.66,5.67,6.34,3.17-1.5L33.5,243l3.5,4-3.5,4,2.5,1.83,4.67-3,6.5,6L49,251.17l2.33,1.5-2.16,4.5,1.5,3.83,3.83-.33,2.17-3,2.16,1.16L55.67,265l3,5,4-.17.16-5,3.34.17,1.33,3-2.83,1.67v5l2.16,1.16,4.67,2.34,1.33,3.66,3-.33.17-4.67,5.83,5.5L78.67,284l8,8.33,4.5-1.66,3,2.16,2-2.5,3.83,1.5-4.33,6,2,2.5,28.33,12,7,1.67,3-6.17ZM91.83,242.17l.34,7.5,2.66,2.83,3.84-4.83L93,240.17ZM28,195.67l1.67,6.5,3.83,1.66v-5.5l-2-4.33ZM158,317l-2,.17-.17,1.16-1.5-.5-.83-2.66,1.67-.84V308.5l-.84-1.67-1.83,1.84v5l-1.67,3.16,3.67,2.67.17,3.33,4.5,6,.5-4.33-2.5-4.5Zm-25.5-21.83.5,3,1.33,2.5,1.34-1-.34-3.84h1.84v-2L135,292.67Z"/>
      <line class="cls-4" x1="365.5" y1="289.5" x2="135.33" y2="289.5"/>
      <polygon class="cls-5" points="382.71 202 200 202 136.33 309.67 155 202 0 202 0 0 383 0 382.71 202"/>
      <polyline class="cls-6" points="382.71 202 200 202 136.33 309.67 155 202 0 202"/>
    </g>
  </g>
  <circle class="cls-7" cx="160.17" cy="338.17" r="3.17"/>
  <circle class="cls-8" cx="136.33" cy="309.67" r="6"/>
  <circle class="cls-9" cx="136.33" cy="309.67" r="8.65"/>
  <circle class="cls-8" cx="347.67" cy="218" r="3.6"/>
  <circle class="cls-10" cx="347.67" cy="218" r="6"/>
  <circle class="cls-7" cx="142" cy="280.67" r="3.17"/>
</svg>
