<svg id="Layer_1" data-name="Layer 1" xmlns="http://www.w3.org/2000/svg" width="383" height="222.5" viewBox="0 0 383 222.5">
  <defs>
    <style>
      .cls-1 {
        fill: #1f8da8;
      }

      .cls-2, .cls-6 {
        fill: #403e41;
      }

      .cls-2 {
        opacity: 0.15;
      }

      .cls-3, .cls-4, .cls-5, .cls-7 {
        fill: none;
      }

      .cls-3, .cls-4, .cls-7 {
        stroke: #fff;
      }

      .cls-3, .cls-4 {
        stroke-linejoin: round;
        stroke-width: 0.5px;
      }

      .cls-3 {
        opacity: 0.6;
      }

      .cls-4 {
        stroke-dasharray: 9 3;
      }

      .cls-4, .cls-6 {
        opacity: 0.4;
      }

      .cls-7 {
        stroke-miterlimit: 10;
        stroke-width: 1.09px;
      }

      .cls-8 {
        fill: #fff;
      }
    </style>
  </defs>
  <rect class="cls-1" width="383" height="222.5"/>
  <path class="cls-2" d="M13.71,0H383V222.5H125.3l-2-10,3.5-4.67L125,206.5l-3.17.67-2.66-5.67,6.33-.83L121.83,197,119,198.5l-1.33-9.67-2.5-3-.17-9.66-7-8.34-1-6.66.17-9.67,9.66,5.33,14.5,2.67,12,.67,4.67,4.16,1.33-3.5H151l5.33,11.5.34,6.34-1,6.83-8.34,4.83.17,5.5,7-3.16,5.83-6.34-.83-14.66,2.5-6.5-2.83-8.67L156,151.17l1.83-3L155,137.83l-6.83-10.16h-3l-.5,3.66-3-2.33-3.5-12.5.83-4-3.33-.67-1.17,3.5-2.33.84-8.84-4.5-8.5-7.17-11-11.5,4.84-5-1.5-4.5H99l-4.67-6L90,81.83l-10.83-1.5-7.67-4.5-7.83.67L64,74.33l1.5-1.83-4.67-4.83L43.5,60.83l-.67-3.33L39,56l-2.33-5.5L46,49.17l-8.5-1.84,4.5-6.5.33-3-4.5,2.67-1.16-4.17-2.84-3.16-.33-5,3-3.34-2.83-1.16,2.16-9.17-2.16.5L29.83,30.17l-3-2.17L29,15.33l1.5-1.83-6.67-1.83-2.33-5L16.83,5.5l-.16,6.67L13.83,6.33ZM137.17,147l-.34-3.67-2-1.5-.16,3.17h-1.5l.16-2.83-1.83-5-4-5.84v-6.66L123.83,122l-6.16-.5-1-3.17-9.34-2.66L101.67,109l.33-3.67-7.5-8.16-1.33-4.34L87,82.67,78.67,82l-3.84-3.33L63.5,78.5l-13.17-5L37.67,65l-7.5-.33L23,68.17l1.83,4.66,5.67,6.34,3.17-1.5L33.5,82.5l3.5,4-3.5,4L36,92.33l4.67-3,6.5,6L49,90.67l2.33,1.5-2.16,4.5,1.5,3.83,3.83-.33,2.17-3,2.16,1.16-3.16,6.17,3,5,4-.17.16-5,3.34.17,1.33,3-2.83,1.67v5l2.16,1.16,4.67,2.34,1.33,3.66,3-.33.17-4.67,5.83,5.5-3.16,1.67,8,8.33,4.5-1.66,3,2.16,2-2.5,3.83,1.5-4.33,6,2,2.5,28.33,12,7,1.67,3-6.17ZM91.83,81.67l.34,7.5L94.83,92l3.84-4.83L93,79.67ZM28,35.17l1.67,6.5,3.83,1.66v-5.5l-2-4.33ZM158,156.5l-2,.17-.17,1.16-1.5-.5-.83-2.66,1.67-.84V148l-.84-1.67-1.83,1.84v5l-1.67,3.16L154.5,159l.17,3.33,4.5,6,.5-4.33-2.5-4.5Zm-25.5-21.83.5,3,1.33,2.5,1.34-1-.34-3.84h1.84v-2L135,132.17Z"/>
  <path class="cls-3" d="M125.5,223.5l-2.17-11,3.5-4.67L125,206.5l-3.17.67-2.66-5.67,6.33-.83L121.83,197,119,198.5l-1.33-9.67-2.5-3-.17-9.66-7-8.34-1-6.66.17-9.67,9.66,5.33,14.5,2.67,12,.67,4.67,4.16,1.33-3.5H151l5.33,11.5.34,6.34-1,6.83-8.34,4.83.17,5.5,7-3.16,5.83-6.34-.83-14.66,2.5-6.5-2.83-8.67L156,151.17l1.83-3L155,137.83l-6.83-10.16h-3l-.5,3.66-3-2.33-3.5-12.5.83-4-3.33-.67-1.17,3.5-2.33.84-8.84-4.5-8.5-7.17-11-11.5,4.84-5-1.5-4.5H99l-4.67-6L90,81.83l-10.83-1.5-7.67-4.5-7.83.67L64,74.33l1.5-1.83-4.67-4.83L43.5,60.83l-.67-3.33L39,56l-2.33-5.5L46,49.17l-8.5-1.84,4.5-6.5.33-3-4.5,2.67-1.16-4.17-2.84-3.16-.33-5,3-3.34-2.83-1.16,2.16-9.17-2.16.5L29.83,30.17l-3-2.17L29,15.33l1.5-1.83-6.67-1.83-2.33-5L16.83,5.5l-.16,6.67L13.83,6.33,13.71,0M137.17,147l-.34-3.67-2-1.5-.16,3.17h-1.5l.16-2.83-1.83-5-4-5.84v-6.66L123.83,122l-6.16-.5-1-3.17-9.34-2.66L101.67,109l.33-3.67-7.5-8.16-1.33-4.34L87,82.67,78.67,82l-3.84-3.33L63.5,78.5l-13.17-5L37.67,65l-7.5-.33L23,68.17l1.83,4.66,5.67,6.34,3.17-1.5L33.5,82.5l3.5,4-3.5,4L36,92.33l4.67-3,6.5,6L49,90.67l2.33,1.5-2.16,4.5,1.5,3.83,3.83-.33,2.17-3,2.16,1.16-3.16,6.17,3,5,4-.17.16-5,3.34.17,1.33,3-2.83,1.67v5l2.16,1.16,4.67,2.34,1.33,3.66,3-.33.17-4.67,5.83,5.5-3.16,1.67,8,8.33,4.5-1.66,3,2.16,2-2.5,3.83,1.5-4.33,6,2,2.5,28.33,12,7,1.67,3-6.17ZM91.83,81.67l.34,7.5L94.83,92l3.84-4.83L93,79.67ZM28,35.17l1.67,6.5,3.83,1.66v-5.5l-2-4.33ZM158,156.5l-2,.17-.17,1.16-1.5-.5-.83-2.66,1.67-.84V148l-.84-1.67-1.83,1.84v5l-1.67,3.16L154.5,159l.17,3.33,4.5,6,.5-4.33-2.5-4.5Zm-25.5-21.83.5,3,1.33,2.5,1.34-1-.34-3.84h1.84v-2L135,132.17Z"/>
  <line class="cls-4" x1="383" y1="129" x2="141.67" y2="129"/>
  <circle class="cls-5" cx="160.17" cy="177.67" r="3.17"/>
  <circle class="cls-6" cx="136.33" cy="149.17" r="8.65"/>
  <circle class="cls-7" cx="136.33" cy="149.17" r="8.65"/>
  <circle class="cls-8" cx="347.67" cy="57.5" r="3.6"/>
  <circle class="cls-5" cx="142" cy="120.17" r="3.17"/>
  <circle class="cls-8" cx="136.33" cy="149.17" r="6"/>
</svg>
